<mxfile host="Electron" modified="2023-12-17T22:02:14.275Z" agent="Mozilla/5.0 (Windows NT 10.0; Win64; x64) AppleWebKit/537.36 (KHTML, like Gecko) draw.io/22.1.2 Chrome/114.0.5735.289 Electron/25.9.4 Safari/537.36" etag="CJKZ1Om7gXFv-A5b7kaL" version="22.1.2" type="device">
  <diagram name="Page-1" id="t8arRgnTufzWEBQhCpLx">
    <mxGraphModel dx="1036" dy="654" grid="1" gridSize="10" guides="1" tooltips="1" connect="1" arrows="1" fold="1" page="1" pageScale="1" pageWidth="850" pageHeight="1100" math="0" shadow="0">
      <root>
        <mxCell id="0" />
        <mxCell id="1" parent="0" />
        <mxCell id="VDUexNMyuybou4n0Yz4R-3" value="" style="edgeStyle=orthogonalEdgeStyle;rounded=0;orthogonalLoop=1;jettySize=auto;html=1;" edge="1" parent="1" source="VDUexNMyuybou4n0Yz4R-1" target="VDUexNMyuybou4n0Yz4R-2">
          <mxGeometry relative="1" as="geometry" />
        </mxCell>
        <mxCell id="VDUexNMyuybou4n0Yz4R-1" value="START" style="ellipse;whiteSpace=wrap;html=1;" vertex="1" parent="1">
          <mxGeometry x="365" y="30" width="120" height="80" as="geometry" />
        </mxCell>
        <mxCell id="VDUexNMyuybou4n0Yz4R-5" value="" style="edgeStyle=orthogonalEdgeStyle;rounded=0;orthogonalLoop=1;jettySize=auto;html=1;" edge="1" parent="1" source="VDUexNMyuybou4n0Yz4R-2" target="VDUexNMyuybou4n0Yz4R-4">
          <mxGeometry relative="1" as="geometry" />
        </mxCell>
        <mxCell id="VDUexNMyuybou4n0Yz4R-2" value="NUMBER&lt;br&gt;SUM&lt;br&gt;N1, N2. N3" style="shape=parallelogram;perimeter=parallelogramPerimeter;whiteSpace=wrap;html=1;fixedSize=1;" vertex="1" parent="1">
          <mxGeometry x="365" y="160" width="120" height="60" as="geometry" />
        </mxCell>
        <mxCell id="VDUexNMyuybou4n0Yz4R-7" value="" style="edgeStyle=orthogonalEdgeStyle;rounded=0;orthogonalLoop=1;jettySize=auto;html=1;" edge="1" parent="1" source="VDUexNMyuybou4n0Yz4R-4" target="VDUexNMyuybou4n0Yz4R-6">
          <mxGeometry relative="1" as="geometry" />
        </mxCell>
        <mxCell id="VDUexNMyuybou4n0Yz4R-4" value="N1 = NUMBER % 10&lt;br&gt;N2 = (NUMBER % 100 - N1) % 10&lt;br&gt;N3 = (NUMBER - (N2 * 10 + N1)) % 100" style="whiteSpace=wrap;html=1;" vertex="1" parent="1">
          <mxGeometry x="300" y="300" width="250" height="60" as="geometry" />
        </mxCell>
        <mxCell id="VDUexNMyuybou4n0Yz4R-9" value="" style="edgeStyle=orthogonalEdgeStyle;rounded=0;orthogonalLoop=1;jettySize=auto;html=1;" edge="1" parent="1" source="VDUexNMyuybou4n0Yz4R-6" target="VDUexNMyuybou4n0Yz4R-8">
          <mxGeometry relative="1" as="geometry" />
        </mxCell>
        <mxCell id="VDUexNMyuybou4n0Yz4R-6" value="SUM = N1 * N2 * N3" style="whiteSpace=wrap;html=1;" vertex="1" parent="1">
          <mxGeometry x="365" y="440" width="120" height="60" as="geometry" />
        </mxCell>
        <mxCell id="VDUexNMyuybou4n0Yz4R-11" value="" style="edgeStyle=orthogonalEdgeStyle;rounded=0;orthogonalLoop=1;jettySize=auto;html=1;" edge="1" parent="1" source="VDUexNMyuybou4n0Yz4R-8" target="VDUexNMyuybou4n0Yz4R-10">
          <mxGeometry relative="1" as="geometry" />
        </mxCell>
        <mxCell id="VDUexNMyuybou4n0Yz4R-8" value="SUM" style="shape=document;whiteSpace=wrap;html=1;boundedLbl=1;" vertex="1" parent="1">
          <mxGeometry x="365" y="550" width="120" height="80" as="geometry" />
        </mxCell>
        <mxCell id="VDUexNMyuybou4n0Yz4R-10" value="END" style="ellipse;whiteSpace=wrap;html=1;" vertex="1" parent="1">
          <mxGeometry x="365" y="670" width="120" height="80" as="geometry" />
        </mxCell>
      </root>
    </mxGraphModel>
  </diagram>
</mxfile>
